<?xml version="1.0" encoding="utf-8"?>
<!-- Generator: Adobe Illustrator 18.1.1, SVG Export Plug-In . SVG Version: 6.00 Build 0)  -->
<svg version="1.1" id="Layer_1" xmlns="http://www.w3.org/2000/svg" xmlns:xlink="http://www.w3.org/1999/xlink" x="0px" y="0px"
	 width="64px" height="64px" viewBox="0 0 64 64" enable-background="new 0 0 64 64" xml:space="preserve">
<g>
	<rect x="10.3" y="11.5" fill="#FFFFFF" width="43.1" height="40.6"/>
	<path fill="#0274B3" d="M32,0.5C14.6,0.5,0.5,14.6,0.5,32S14.6,63.5,32,63.5S63.5,49.4,63.5,32S49.4,0.5,32,0.5z M21.6,50.5
		c-0.1,0.1-0.2,0-0.3,0c-1,0-2.1,0-3.1,0c-1.5,0-3,0-4.4,0c-0.1,0-0.2,0-0.3,0c0,0,0,0,0-0.1c0-8.3,0-16.5,0-24.8c0,0,0-0.1,0-0.2
		c2.7,0,5.4,0,8.1,0c0,0,0.1,0,0.1,0c0,0,0,0.1,0,0.1c0,8.2,0,16.5,0,24.7C21.6,50.4,21.6,50.4,21.6,50.5z M19.5,21.7
		c-1.3,0.5-2.5,0.5-3.8,0.1c-1.5-0.5-2.4-1.6-2.8-3.1c-0.2-1-0.1-1.9,0.4-2.9c0.5-1.1,1.4-1.8,2.6-2.1c0.8-0.2,1.6-0.3,2.4-0.2
		c0.5,0.1,1,0.2,1.4,0.4c1.3,0.6,2.2,1.6,2.5,3c0.1,0.3,0.1,0.6,0.1,0.8C22.1,19.7,21.1,21.1,19.5,21.7z M51.5,50.5
		C51.5,50.5,51.5,50.5,51.5,50.5C51.5,50.5,51.5,50.5,51.5,50.5c-2.7,0-5.4,0-8.1,0c0,0-0.1,0-0.1,0c0-0.1,0-0.1,0-0.2
		c0-0.1,0-0.2,0-0.3c0-4.3,0-8.6,0-13c0-0.8-0.1-1.5-0.2-2.3c-0.1-0.5-0.3-0.9-0.5-1.3c-0.6-1.3-1.7-1.9-3.1-2c-0.6,0-1.2,0-1.9,0.2
		c-0.9,0.3-1.6,0.8-2.1,1.6c-0.3,0.4-0.5,0.8-0.7,1.2c-0.2,0.4-0.2,0.8-0.3,1.2c0,0.3,0,0.6,0,0.9c0,4.5,0,9,0,13.5
		c0,0.1,0,0.3,0,0.4c-0.1,0-0.1,0-0.2,0c-2.7,0-5.4,0-8.1,0c-0.1-0.1-0.1-0.2-0.1-0.2c0-0.5,0-1.1,0-1.6c0-2.1,0-4.2,0-6.3
		c0-3.7,0-7.5,0-11.2c0-1.6,0-3.2,0-4.9c0-0.2,0-0.5,0-0.7c0,0,0.1,0,0.2,0c0.1,0,0.1,0,0.2,0c2.5,0,5.1,0,7.6,0c0.1,0,0.2,0,0.3,0
		c0.1,0.1,0.1,0.2,0.1,0.3c0,0.9,0,1.9,0,2.8c0,0.1,0,0.2,0,0.3c0.1-0.1,0.1-0.1,0.2-0.2c0.3-0.4,0.5-0.7,0.8-1.1
		c1.2-1.4,2.8-2.3,4.6-2.6c1.6-0.3,3.2-0.2,4.7,0.2c2.4,0.7,4.1,2.1,5.3,4.3c0.5,1,0.9,2.1,1.1,3.2c0.2,1.1,0.3,2.2,0.3,3.3
		c0,4.7,0,9.4,0,14C51.6,50.2,51.6,50.4,51.5,50.5z"/>
</g>
</svg>
