<?xml version="1.0" encoding="utf-8"?>
<!-- Generator: Adobe Illustrator 16.2.1, SVG Export Plug-In . SVG Version: 6.00 Build 0)  -->
<!DOCTYPE svg PUBLIC "-//W3C//DTD SVG 1.1//EN" "http://www.w3.org/Graphics/SVG/1.1/DTD/svg11.dtd">
<svg version="1.1" id="Layer_1" xmlns="http://www.w3.org/2000/svg" xmlns:xlink="http://www.w3.org/1999/xlink" x="0px" y="0px"
	 width="100px" height="100px" viewBox="0 0 100 100" enable-background="new 0 0 100 100" xml:space="preserve">
<g>
	<path fill="#55ACEE" d="M50,0C22.386,0,0,22.386,0,50c0,27.615,22.386,50,50,50c27.613,0,50-22.385,50-50C100,22.386,77.613,0,50,0
		L50,0z"/>
</g>
<g>
	<path fill="#FFFFFF" d="M81.104,30.732c-1.62,2.43-3.739,4.644-6.356,6.625v1.624c0,4.238-0.791,8.496-2.363,12.778
		c-1.58,4.285-3.904,8.163-6.968,11.636c-3.066,3.469-6.851,6.31-11.357,8.514c-4.515,2.217-9.697,3.316-15.558,3.316
		c-7.215,0-13.746-1.896-19.606-5.68c0.449,0.089,0.944,0.137,1.482,0.137c0.541,0,1.085,0,1.626,0c2.975,0,5.815-0.474,8.518-1.425
		c2.709-0.946,5.139-2.272,7.304-3.988c-2.797-0.09-5.274-0.948-7.435-2.565c-2.165-1.627-3.657-3.741-4.464-6.361
		c0.358,0.181,0.721,0.274,1.08,0.274c0.36,0,0.764,0,1.22,0c1.167,0,2.296-0.139,3.378-0.407c-2.887-0.632-5.298-2.095-7.237-4.396
		c-1.936-2.3-2.904-5.027-2.904-8.185v-0.131c1.624,0.901,3.516,1.443,5.68,1.624c-1.712-1.174-3.088-2.688-4.127-4.534
		c-1.037-1.844-1.553-3.895-1.553-6.154c0-2.162,0.583-4.28,1.755-6.353c3.158,3.877,6.989,7.01,11.498,9.398
		c4.506,2.388,9.469,3.675,14.88,3.855c-0.276-0.813-0.407-1.761-0.407-2.843c0-1.712,0.333-3.356,1.012-4.937
		c0.676-1.572,1.578-2.926,2.706-4.054c1.125-1.129,2.477-2.034,4.058-2.703c1.574-0.675,3.268-1.018,5.071-1.018
		c3.693,0,6.76,1.309,9.196,3.922c1.531-0.269,2.951-0.654,4.262-1.149c1.304-0.496,2.59-1.101,3.853-1.825
		c-0.905,2.975-2.755,5.319-5.542,7.032C76.323,32.398,78.763,31.719,81.104,30.732z"/>
</g>
</svg>
