<?xml version="1.0" encoding="utf-8"?>
<!-- Generator: Adobe Illustrator 16.2.1, SVG Export Plug-In . SVG Version: 6.00 Build 0)  -->
<!DOCTYPE svg PUBLIC "-//W3C//DTD SVG 1.1//EN" "http://www.w3.org/Graphics/SVG/1.1/DTD/svg11.dtd">
<svg version="1.1" id="Layer_1" xmlns="http://www.w3.org/2000/svg" xmlns:xlink="http://www.w3.org/1999/xlink" x="0px" y="0px"
	 width="100px" height="100px" viewBox="0 0 100 100" enable-background="new 0 0 100 100" xml:space="preserve">
<g>
	<path fill="#E52D27" d="M50,0C22.387,0,0,22.386,0,50c0,27.615,22.387,50,50,50s50-22.385,50-50C100,22.386,77.613,0,50,0L50,0z"/>
</g>
<g>
	<path fill="#FFFFFF" d="M15.671,55.754c-0.028-1.383-0.037-3.304-0.037-5.752c0-2.457,0.009-4.375,0.037-5.754
		c0.021-1.383,0.133-3.127,0.326-5.237c0.189-2.109,0.478-3.997,0.861-5.659c0.407-1.864,1.292-3.44,2.651-4.717
		c1.354-1.276,2.936-2.02,4.754-2.221C29.94,25.769,38.515,25.452,50,25.452c11.483,0,20.058,0.317,25.737,0.961
		c1.818,0.201,3.405,0.945,4.776,2.221c1.363,1.277,2.254,2.854,2.664,4.717c0.355,1.662,0.637,3.55,0.826,5.659
		c0.189,2.11,0.301,3.854,0.321,5.237c0.032,1.379,0.043,3.297,0.043,5.754c0,2.449-0.011,4.37-0.043,5.752
		c-0.021,1.38-0.132,3.126-0.321,5.235c-0.189,2.108-0.481,3.99-0.86,5.653c-0.413,1.871-1.296,3.44-2.65,4.721
		c-1.355,1.283-2.938,2.021-4.756,2.228C70.058,74.229,61.482,74.549,50,74.549c-11.485,0-20.06-0.32-25.737-0.958
		c-1.818-0.207-3.405-0.944-4.776-2.228c-1.363-1.28-2.252-2.85-2.663-4.721c-0.363-1.663-0.637-3.545-0.827-5.653
		C15.804,58.88,15.692,57.134,15.671,55.754z M40.183,62.274c0,0.973,0.419,1.683,1.264,2.148c0.408,0.204,0.806,0.308,1.185,0.308
		c0.516,0,0.948-0.13,1.309-0.387l19.637-12.272c0.771-0.436,1.15-1.127,1.15-2.07c0-0.948-0.379-1.637-1.15-2.076L43.94,35.654
		c-0.792-0.513-1.625-0.539-2.493-0.078c-0.845,0.461-1.264,1.178-1.264,2.148V62.274z"/>
</g>
</svg>
