<?xml version="1.0" encoding="utf-8"?>
<!-- Generator: Adobe Illustrator 16.2.1, SVG Export Plug-In . SVG Version: 6.00 Build 0)  -->
<!DOCTYPE svg PUBLIC "-//W3C//DTD SVG 1.1//EN" "http://www.w3.org/Graphics/SVG/1.1/DTD/svg11.dtd">
<svg version="1.1" id="Layer_1" xmlns="http://www.w3.org/2000/svg" xmlns:xlink="http://www.w3.org/1999/xlink" x="0px" y="0px"
	 width="100px" height="100px" viewBox="0 0 100 100" enable-background="new 0 0 100 100" xml:space="preserve">
<g>
	<path fill="#FFFFFF" d="M50,0C22.387,0,0,22.386,0,50c0,27.615,22.387,50,50,50s50-22.385,50-50C100,22.386,77.613,0,50,0L50,0z"/>
</g>
<path fill="#C92228" d="M50.002,0C22.393,0,0,22.386,0,49.999c0,20.475,12.315,38.065,29.938,45.795
	c-0.146-3.484-0.026-7.685,0.862-11.478c0.967-4.059,6.435-27.248,6.435-27.248s-1.597-3.192-1.597-7.91
	c0-7.41,4.296-12.943,9.642-12.943c4.548,0,6.747,3.414,6.747,7.507c0,4.573-2.914,11.41-4.415,17.739
	c-1.256,5.308,2.66,9.63,7.891,9.63c9.475,0,15.852-12.162,15.852-26.58c0-10.957-7.382-19.16-20.802-19.16
	c-15.166,0-24.614,11.311-24.614,23.942c0,4.357,1.281,7.43,3.291,9.807c0.928,1.1,1.057,1.531,0.722,2.793
	c-0.238,0.908-0.792,3.131-1.018,4.007c-0.335,1.269-1.359,1.72-2.503,1.256c-6.985-2.854-10.237-10.504-10.237-19.103
	c0-14.203,11.974-31.239,35.729-31.239c19.091,0,31.654,13.818,31.654,28.643c0,19.618-10.901,34.266-26.979,34.266
	c-5.397,0-10.474-2.911-12.212-6.229c0,0-2.905,11.518-3.521,13.746c-1.057,3.852-3.134,7.703-5.033,10.705
	c4.495,1.333,9.249,2.055,14.17,2.055C77.614,100,100,77.611,100,49.999C100,22.386,77.614,0,50.002,0z"/>
</svg>
