<?xml version="1.0" encoding="utf-8"?>
<!-- Generator: Adobe Illustrator 16.2.1, SVG Export Plug-In . SVG Version: 6.00 Build 0)  -->
<!DOCTYPE svg PUBLIC "-//W3C//DTD SVG 1.1//EN" "http://www.w3.org/Graphics/SVG/1.1/DTD/svg11.dtd">
<svg version="1.1" id="Layer_1" xmlns="http://www.w3.org/2000/svg" xmlns:xlink="http://www.w3.org/1999/xlink" x="0px" y="0px"
	 width="12px" height="12px" viewBox="0 0 100 100" enable-background="new 0 0 100 100" xml:space="preserve">
<g>
	<path fill="#B5A388" d="M50,0C22.387,0,0,22.386,0,50c0,27.615,22.387,50,50,50s50-22.385,50-50C100,22.386,77.613,0,50,0L50,0z"/>
</g>
<g>
	<path fill="#FFFFFF" d="M68.567,19.732H31.431c-6.452,0-11.699,5.247-11.699,11.699v12.356v24.783
		c0,6.45,5.248,11.698,11.699,11.698h37.136c6.45,0,11.7-5.248,11.7-11.698V43.787V31.431
		C80.268,24.979,75.018,19.732,68.567,19.732z M71.925,26.71l1.338-0.006v1.334v8.927l-10.229,0.034l-0.035-10.262L71.925,26.71z
		 M41.362,43.787c1.937-2.682,5.082-4.443,8.637-4.443s6.703,1.761,8.639,4.443c1.266,1.751,2.02,3.895,2.02,6.215
		c0,5.875-4.785,10.65-10.659,10.65c-5.874,0-10.655-4.775-10.655-10.65C39.344,47.681,40.101,45.538,41.362,43.787z M74.369,68.569
		c0,3.201-2.602,5.798-5.802,5.798H31.431c-3.202,0-5.801-2.597-5.801-5.798V43.787h9.038c-0.784,1.921-1.223,4.018-1.223,6.215
		c0,9.127,7.426,16.553,16.553,16.553c9.13,0,16.552-7.426,16.552-16.553c0-2.197-0.442-4.294-1.22-6.215h9.038V68.569z"/>
</g>
</svg>
