<?xml version="1.0" encoding="utf-8"?>
<!-- Generator: Adobe Illustrator 16.2.1, SVG Export Plug-In . SVG Version: 6.00 Build 0)  -->
<!DOCTYPE svg PUBLIC "-//W3C//DTD SVG 1.1//EN" "http://www.w3.org/Graphics/SVG/1.1/DTD/svg11.dtd">
<svg version="1.1" id="Layer_1" xmlns="http://www.w3.org/2000/svg" xmlns:xlink="http://www.w3.org/1999/xlink" x="0px" y="0px"
	 width="100px" height="100px" viewBox="0 0 100 100" enable-background="new 0 0 100 100" xml:space="preserve">
<g>
	<path fill="#3B5998" d="M50,0C22.386,0,0,22.386,0,50c0,27.615,22.386,50,50,50c27.613,0,50-22.385,50-50C100,22.386,77.613,0,50,0
		L50,0z"/>
</g>
<g>
	<path fill="#FFFFFF" d="M66.241,28.547H55.877c-0.684,0-1.286,0.366-1.82,1.098c-0.542,0.729-0.803,1.626-0.803,2.695v7.447h12.987
		V50.58H53.254v32.253H40.852V50.58H29.759V39.788h11.093v-6.277c0-4.572,1.405-8.437,4.226-11.604
		c2.82-3.157,6.425-4.74,10.799-4.74h10.364V28.547z"/>
</g>
</svg>
