<?xml version="1.0" encoding="UTF-8"?>
<svg width="173px" height="72px" viewBox="0 0 173 72" version="1.1" xmlns="http://www.w3.org/2000/svg" xmlns:xlink="http://www.w3.org/1999/xlink">
    <title>icon / weber-logo</title>
    <g id="Homepage" stroke="none" stroke-width="1" fill="none" fill-rule="evenodd">
        <g id="Header-&amp;-Footer" transform="translate(-148.000000, -3427.000000)" fill-rule="nonzero">
            <g id="1440-/-footer-copy" transform="translate(0.000000, 3129.000000)">
                <g id="weber-logo" transform="translate(148.000000, 298.000000)">
                    <path d="M8.02608811,0.00247255015 C3.37538625,0.00247255015 0,3.5269586 0,8.39337151 L0,63.7902715 C0.0235803479,66.019847 0.934608841,68.1460385 2.52777938,69.6896952 C4.12094993,71.233352 6.26220969,72.0645874 8.46901209,71.9960771 L164.836453,71.9960771 C169.275859,71.9076782 172.866556,68.3187473 173,63.8365449 L173,8.10801925 C172.988352,5.91886442 172.105313,3.8264421 170.549689,2.30183751 C168.994065,0.777232913 166.896609,-0.0514084858 164.72954,0.00247255015 L8.02608811,0.00247255015 Z" id="Path" fill="#000000"></path>
                    <path d="M156.082026,51.9422896 C155.913951,51.9416253 155.746104,51.9545618 155.580172,51.980969 L152.05151,42.0945102 C152.898389,41.777339 153.392402,41.3982807 153.392402,40.9882789 C153.392402,40.4622389 152.561206,40.0212935 151.19679,39.6963864 L150.13035,36.7103355 C154.505891,34.7918364 157.030844,30.0961553 157.030844,28.061618 C157.111063,27.6507732 157.158259,27.2343188 157.171991,26.8161408 C157.109259,26.4912337 157.517016,26.5608567 157.517016,26.5608567 C158.07376,26.2901007 157.611113,24.6965088 157.517016,24.6965088 C157.422918,24.6965088 157.06221,24.7738676 157.00732,24.549527 C155.909514,19.9079971 151.432034,18.7553505 148.044519,18.4691228 C148.142989,18.1166029 148.187913,17.7516236 148.177824,17.3860991 C148.188537,17.265134 148.188537,17.1434777 148.177824,17.0225126 L148.271921,17.0225126 C148.672514,17.0225126 148.997257,16.7021413 148.997257,16.3069434 C148.997257,15.9117455 148.672514,15.5913742 148.271921,15.5913742 C147.350465,15.4588175 146.418917,15.4070426 145.488199,15.4366565 C144.583681,15.4163987 143.678979,15.4681389 142.782892,15.5913742 C142.384465,15.5721484 142.045678,15.8752022 142.02619,16.268264 C142.006702,16.6613257 142.313892,16.9955509 142.712319,17.0147767 C142.704302,17.1384245 142.704302,17.2624513 142.712319,17.3860991 C142.700894,17.7315631 142.732496,18.0771043 142.806416,18.4149716 C139.356169,18.5155381 134.345469,19.1885599 133.318237,24.549527 L132.886956,24.549527 C132.628187,24.549527 132.306687,25.9110425 132.667395,26.4912337 C132.777175,26.6768949 133.051627,26.5531208 133.302554,26.5685925 C133.357444,27.1101044 133.396651,27.1797273 133.467225,27.930108 C133.686786,30.1967218 135.921605,34.4282499 140.148158,36.4395796 L138.948413,39.657707 C137.380119,39.9826141 136.415618,40.4312953 136.415618,41.0269583 C136.415618,41.4679037 136.995887,41.8779055 137.983912,42.2105485 L131.891089,58.1232603 L133.208456,58.1232603 L134.478774,55.1294735 L152.882706,55.1294735 C152.887042,56.8768817 154.326444,58.2899691 156.097703,58.2857047 C157.868961,58.2814209 159.301339,56.8614036 159.29702,55.1139955 C159.292681,53.3665873 157.853285,51.9534942 156.082026,51.9577614 M149.871582,39.4643099 C148.46099,39.2643916 147.038638,39.1558568 145.613663,39.1394028 L145.613663,37.5071315 C146.766326,37.5334707 147.916384,37.3874108 149.024703,37.073922 L149.871582,39.4643099 Z M149.714752,52.3213479 L151.118375,53.040785 L144.508016,53.1258798 L149.714752,52.3213479 Z M146.844774,52.0351202 C147.131011,51.8204028 147.37769,51.5587273 147.574031,51.2615319 L148.632629,51.8030437 L146.844774,52.0351202 Z M146.907506,16.9915691 C146.899433,17.1126337 146.899433,17.2340909 146.907506,17.3551556 C146.893928,17.7168559 146.930868,18.0786789 147.017286,18.4304434 L143.880698,18.4304434 C143.967023,18.0890761 144.006583,17.7378347 143.99832,17.3860991 C144.008686,17.2651193 144.008686,17.1434924 143.99832,17.0225126 L146.907506,16.9915691 Z M141.144025,36.8418455 C142.207895,37.2544353 143.341374,37.464429 144.484491,37.4607162 L144.484491,39.1161952 C143.047435,39.1222297 141.612201,39.2178294 140.187365,39.4024229 L141.144025,36.8418455 Z M139.034669,42.4813044 C140.839832,42.8541483 142.679399,43.0408131 144.523698,43.038288 L144.523698,46.5039637 C142.916119,46.6728144 141.692051,48.0034878 141.677245,49.598317 C141.676278,49.9902272 141.750786,50.3787513 141.896806,50.7432277 L134.894372,53.6519198 L139.034669,42.4813044 Z M142.265355,51.4704007 C142.660744,51.9890962 143.208253,52.3752939 143.833649,52.576632 L136.58813,53.775694 L142.265355,51.4704007 Z M152.992487,54.2321111 L137.693777,54.170224 L141.849757,53.6055045 L152.278913,53.6055045 L152.216181,53.5590892 L153.06306,53.9922987 C153.06306,54.0619216 153.00817,54.1392805 152.992487,54.2166393 M153.4865,53.2187104 L147.926897,50.4879436 C148.013729,50.1991074 148.05861,49.8995843 148.060202,49.598317 C148.030064,48.1785359 147.035715,46.9563051 145.637187,46.6200019 L145.637187,43.038288 C147.42603,43.0236381 149.208222,42.8213679 150.953704,42.4348891 L154.498049,52.3600273 C154.103816,52.5803675 153.76166,52.8809969 153.494341,53.241918" id="Shape" fill="#ED1D24"></path>
                    <path d="M118.530693,56.570893 C118.554153,55.8016732 119.191274,55.1943276 119.96009,55.2082986 C120.728905,55.2222695 121.343577,55.8523626 121.339144,56.6219278 C121.334664,57.391493 120.712735,58.0144129 119.94381,58.0194637 C119.562276,58.0219698 119.196141,57.8690234 118.929601,57.5957955 C118.66306,57.3225676 118.519052,56.9525724 118.530693,56.570893 M119.94381,58.2851778 C120.883867,58.2616495 121.629197,57.4840342 121.613622,56.5430343 C121.598046,55.6020344 120.82739,54.8495532 119.887069,54.8572006 C118.946749,54.864848 118.188413,55.6297641 118.188119,56.570893 C118.187975,57.0330734 118.374303,57.4757313 118.704851,57.7984829 C119.035398,58.1212345 119.482155,58.2967323 119.94381,58.2851778 M119.575543,56.6823215 L119.926681,56.6823215 L120.45767,57.5394639 L120.800244,57.5394639 L120.226433,56.6823215 C120.369557,56.6824949 120.506485,56.6238927 120.605232,56.5202036 C120.703979,56.4165146 120.755897,56.2768199 120.748858,56.1337504 C120.748858,55.7394649 120.517621,55.5680364 120.046582,55.5680364 L119.284355,55.5680364 L119.284355,57.582321 L119.584107,57.582321 L119.575543,56.6823215 Z M119.575543,56.4251788 L119.575543,55.8080363 L119.986631,55.8080363 C120.192176,55.8080363 120.423413,55.8508934 120.423413,56.0994647 C120.423413,56.348036 120.192176,56.4251788 119.935245,56.4251788 L119.575543,56.4251788 Z" id="Shape" fill="#FFFFFF"></path>
                    <path d="M161.352475,56.570893 C161.375935,55.8016732 162.013056,55.1943276 162.781872,55.2082986 C163.550688,55.2222695 164.165359,55.8523626 164.160927,56.6219278 C164.156446,57.391493 163.534518,58.0144129 162.765592,58.0194637 C162.384058,58.0219698 162.017923,57.8690234 161.751383,57.5957955 C161.484842,57.3225676 161.340834,56.9525724 161.352475,56.570893 M162.765592,58.2851778 C163.70565,58.2616495 164.450979,57.4840342 164.435404,56.5430343 C164.419828,55.6020344 163.649172,54.8495532 162.708852,54.8572006 C161.768531,54.864848 161.010195,55.6297641 161.009901,56.570893 C161.009757,57.0330734 161.196086,57.4757313 161.526633,57.7984829 C161.85718,58.1212345 162.303937,58.2967323 162.765592,58.2851778 M162.397325,56.7080358 L162.739899,56.7080358 L163.270888,57.5651782 L163.613462,57.5651782 L163.039651,56.7080358 C163.182775,56.7082091 163.319703,56.6496069 163.41845,56.5459179 C163.517197,56.4422289 163.569115,56.3025342 163.562076,56.1594647 C163.562076,55.7651792 163.330838,55.5937507 162.851235,55.5937507 L162.089009,55.5937507 L162.089009,57.582321 L162.397325,57.582321 L162.397325,56.7080358 Z M162.397325,56.4508931 L162.397325,55.8337506 L162.808413,55.8337506 C163.013958,55.8337506 163.245195,55.8766077 163.245195,56.125179 C163.245195,56.3737503 163.022522,56.4508931 162.757027,56.4508931 L162.397325,56.4508931 Z" id="Shape" fill="#FFFFFF"></path>
                    <path d="M18.3223923,21.3443573 C18.3223923,18.8181188 15.9155432,19.9138367 15.9155432,18.3767879 L15.9155432,16.9538764 L24.4040521,16.9538764 L24.4040521,53.698473 C24.4035001,54.1734696 24.5973039,54.6279196 24.9402451,54.9557909 C25.2831864,55.2836622 25.7452689,55.4562765 26.2186796,55.4333597 C26.6899692,55.4589481 27.1505256,55.2862268 27.4892734,54.9568522 C27.8280212,54.6274776 28.0142105,54.1713486 28.0029369,53.698473 L28.0029369,16.9158307 L32.9836719,16.9158307 L32.9836719,53.698473 C32.9697328,54.2931899 33.2775414,54.8490364 33.7884858,55.151821 C34.4078865,55.4929571 35.1583422,55.4929571 35.7777428,55.151821 C36.2772932,54.8360053 36.5676538,54.2743865 36.5370012,53.6832546 L36.5370012,16.9158307 L42.6794017,16.9158307 L42.6794017,51.3244174 C42.6794017,55.7757715 38.3516288,58.2335277 30.4781192,58.2335277 C22.6046097,58.2335277 18.2540591,55.8290356 18.2540591,51.3244174 L18.3223923,21.3443573 Z M105.265071,40.0476537 L105.265071,53.0593042 C105.265071,55.151821 102.926555,58.2259186 97.9002648,58.2259186 L96.875266,58.2259186 C91.8489754,58.2259186 89.4952744,55.1822577 89.4876818,53.0593042 L89.4876818,21.3063116 C89.4876818,19.5105516 91.6287905,16.1473063 96.8297105,16.1473063 L97.8774871,16.1473063 C103.093592,16.1473063 105.265071,19.5105516 105.265071,21.3063116 L105.265071,36.3039508 L95.5845267,36.3039508 L95.5845267,54.2387228 C95.5968481,54.6778282 95.7915812,55.0918278 96.1217203,55.380788 C96.4518594,55.6697483 96.887407,55.8074135 97.3232284,55.7605532 C97.7674988,55.8070647 98.2116668,55.671644 98.554822,55.3850573 C98.8979771,55.0984707 99.1109836,54.6850509 99.1454486,54.2387228 C99.1454486,54.2387228 99.1454486,40.5879035 99.1454486,40.0780903 L105.265071,40.0476537 Z M95.5769341,31.418875 L99.1454689,31.418875 L99.1454689,20.0051465 C99.1479581,19.5766052 98.9183231,19.1804215 98.5456345,18.9703018 C97.8143837,18.5925115 96.9459619,18.5925115 96.2147112,18.9703018 C95.8338752,19.1607857 95.5908068,19.5481959 95.5845267,19.9747099 L95.5769341,31.418875 Z M63.5058595,40.0476537 C63.5058595,40.5650761 63.5058595,53.0593042 63.5058595,53.0593042 C63.5058595,55.151821 61.159751,58.2259186 56.1334604,58.2259186 L55.1540171,58.2259186 C50.1277265,58.2259186 47.7740255,55.1822577 47.7664329,53.0593042 L47.7664329,21.3063116 C47.7664329,19.5105516 49.9075416,16.1473063 55.1084616,16.1473063 L56.1562382,16.1473063 C61.3495656,16.1473063 63.5058595,19.5029425 63.5058595,21.3063116 C63.5058595,21.3063116 63.5058595,35.8093559 63.5058595,36.3039508 L53.8405001,36.3039508 L53.8405001,54.2387228 C53.8528215,54.6778282 54.0475546,55.0918278 54.3776937,55.380788 C54.7078327,55.6697483 55.1433804,55.8074135 55.5792018,55.7605532 C56.0230376,55.8049161 56.4660488,55.6687124 56.8087045,55.3825429 C57.1513602,55.0963733 57.3649266,54.6842351 57.401422,54.2387228 C57.401422,54.2387228 57.4317923,40.5802944 57.4317923,40.0476537 L63.5058595,40.0476537 Z M53.8405001,31.418875 L57.4317923,31.418875 L57.4317923,20.0051465 C57.4358455,19.5781966 57.2093329,19.1823898 56.8395708,18.9703018 C56.1059661,18.5911652 55.2346595,18.5911652 54.5010549,18.9703018 C54.1202189,19.1607857 53.8771505,19.5481959 53.8708704,19.9747099 L53.8405001,31.418875 Z M107.861735,17.0147497 L107.861735,18.4452703 C107.861735,19.9671008 110.268584,18.8866011 110.268584,21.4052305 L110.268584,57.5867498 L116.395799,57.5867498 L116.395799,19.7692628 C116.479781,19.4180273 116.708934,19.1192018 117.025984,18.9474744 C117.715339,18.5740642 118.546071,18.5740642 119.235426,18.9474744 C119.651296,19.1734612 119.912699,19.6071741 119.918758,20.081238 L119.918758,36.2430776 L126.129492,36.2430776 L126.129492,20.180157 C126.176719,18.9315637 125.486635,17.7719591 124.368013,17.2201968 C122.325607,16.1549155 119.106352,15.6983663 116.86654,17.3571615 L116.42617,17.6615276 L116.42617,17.0223588 L107.861735,17.0147497 Z M169.559072,8.47728077 L169.559072,63.4686245 C169.440087,66.2685947 167.176475,68.4972301 164.38093,68.5667566 L8.9075882,68.5667566 C7.49392067,68.6264016 6.11585789,68.1129351 5.08442355,67.1422447 C4.0529892,66.1715542 3.45511631,64.8254531 3.42574257,63.4077513 L3.42574257,8.75881941 C3.42574257,5.57058459 5.45296249,3.43241279 8.45962574,3.43241279 L164.259449,3.43241279 C165.637457,3.37896214 166.978666,3.88514925 167.979182,4.8362819 C168.979699,5.78741454 169.554829,7.10297761 169.574257,8.48488992 M167.220556,8.48488992 C167.199716,7.73136548 166.872482,7.01911364 166.314754,6.51333226 C165.757025,6.00755089 165.017261,5.75218674 164.267041,5.80646831 L74.7656615,5.80646831 C74.7656615,9.14688618 74.7656615,17.4941263 74.7656615,17.4941263 L75.1984388,17.0527954 C76.0184378,16.2233978 79.1238047,15.8048944 81.5610241,16.83213 C83.4743553,17.6387002 84.484169,19.4725059 84.484169,22.1052726 L84.484169,53.1049591 C84.484169,55.2735675 81.6976906,58.2715735 76.4967706,58.2715735 C71.106036,58.2715735 68.5928907,55.2279126 68.5928907,53.1049591 L68.5928907,7.83050283 C68.5928907,6.24018999 67.6362251,6.08800695 66.9301148,5.80646831 L8.46721833,5.80646831 C6.56147975,5.80646831 5.80222135,7.09241505 5.80222135,8.75881941 L5.80222135,63.4153605 C5.84128159,64.2043363 6.19420344,64.944718 6.78206987,65.4709484 C7.3699363,65.9971788 8.1437096,66.2653617 8.93036595,66.2155285 L164.373337,66.2155285 C165.873635,66.1501284 167.087531,64.969557 167.197779,63.4686245 L167.220556,8.48488992 Z M74.7884392,54.2387228 C74.9265733,55.0893031 75.6596526,55.7140769 76.5195484,55.7140769 C77.3794441,55.7140769 78.1125235,55.0893031 78.2506575,54.2387228 L78.2506575,19.8377452 C78.2506575,19.1453123 77.5825101,18.6963723 76.5802891,18.6963723 C75.6919567,18.6963723 74.7884392,19.0844391 74.7884392,19.8377452 L74.7884392,54.2387228 Z" id="Shape" fill="#FFFFFF"></path>
                </g>
            </g>
        </g>
    </g>
</svg>